{
  "accessors": [
    {
      "bufferView": 2,
      "componentType": 5126,
      "count": 65532,
      "max": [
        72.35281372070313,
        8.223466873168945,
        7.826799392700195
      ],
      "min": [
        -91.4784164428711,
        -126.87905883789063,
        -6.677807331085205
      ],
      "type": "VEC3"
    },
    {
      "bufferView": 2,
      "byteOffset": 786384,
      "componentType": 5126,
      "count": 65532,
      "max": [
        0.9999834299087524,
        0.9999595284461975,
        0.9981079697608948
      ],
      "min": [
        -0.999992847442627,
        -0.9999975562095642,
        -0.9999999403953552
      ],
      "type": "VEC3"
    },
    {
      "bufferView": 1,
      "componentType": 5126,
      "count": 65532,
      "max": [
        0.9994717240333557,
        0.9997080564498901
      ],
      "min": [
        0.000150239939102903,
        0.06521602720022202
      ],
      "type": "VEC2"
    },
    {
      "bufferView": 0,
      "componentType": 5125,
      "count": 304914,
      "type": "SCALAR"
    },
    {
      "bufferView": 2,
      "byteOffset": 1572768,
      "componentType": 5126,
      "count": 65532,
      "max": [
        123.185791015625,
        13.600797653198242,
        8.060230255126953
      ],
      "min": [
        -101.70782470703125,
        -126.31690216064453,
        2.213118076324463
      ],
      "type": "VEC3"
    },
    {
      "bufferView": 2,
      "byteOffset": 2359152,
      "componentType": 5126,
      "count": 65532,
      "max": [
        0.9992138147354126,
        0.9987450838088989,
        0.9984687566757202
      ],
      "min": [
        -0.9965137243270874,
        -0.9911537170410156,
        -1.0
      ],
      "type": "VEC3"
    },
    {
      "bufferView": 1,
      "byteOffset": 524256,
      "componentType": 5126,
      "count": 65532,
      "max": [
        0.9912344217300415,
        0.9958422780036926
      ],
      "min": [
        0.00392103660851717,
        0.28854602575302124
      ],
      "type": "VEC2"
    },
    {
      "bufferView": 0,
      "byteOffset": 1219656,
      "componentType": 5125,
      "count": 326529,
      "type": "SCALAR"
    },
    {
      "bufferView": 2,
      "byteOffset": 3145536,
      "componentType": 5126,
      "count": 65532,
      "max": [
        15.430320739746094,
        88.3301773071289,
        9.42022705078125
      ],
      "min": [
        -130.0804443359375,
        -114.85559844970703,
        1.0208032131195068
      ],
      "type": "VEC3"
    },
    {
      "bufferView": 2,
      "byteOffset": 3931920,
      "componentType": 5126,
      "count": 65532,
      "max": [
        0.9996684789657593,
        0.9952361583709717,
        0.9983890652656555
      ],
      "min": [
        -0.9998317360877991,
        -0.994631826877594,
        -1.0
      ],
      "type": "VEC3"
    },
    {
      "bufferView": 1,
      "byteOffset": 1048512,
      "componentType": 5126,
      "count": 65532,
      "max": [
        0.9931552410125732,
        0.9968118667602539
      ],
      "min": [
        0.0039118435233831406,
        0.003939738031476736
      ],
      "type": "VEC2"
    },
    {
      "bufferView": 0,
      "byteOffset": 2525772,
      "componentType": 5125,
      "count": 316239,
      "type": "SCALAR"
    },
    {
      "bufferView": 2,
      "byteOffset": 4718304,
      "componentType": 5126,
      "count": 65532,
      "max": [
        109.45183563232422,
        108.44627380371094,
        9.428040504455566
      ],
      "min": [
        -123.60708618164063,
        -7.234838008880615,
        2.788168430328369
      ],
      "type": "VEC3"
    },
    {
      "bufferView": 2,
      "byteOffset": 5504688,
      "componentType": 5126,
      "count": 65532,
      "max": [
        0.9978833794593811,
        0.9059889316558838,
        0.999920666217804
      ],
      "min": [
        -0.9945155382156372,
        -0.9760060906410217,
        -1.0
      ],
      "type": "VEC3"
    },
    {
      "bufferView": 1,
      "byteOffset": 1572768,
      "componentType": 5126,
      "count": 65532,
      "max": [
        0.9606102705001831,
        0.9636778831481934
      ],
      "min": [
        0.003918652888387442,
        0.0039101047441363335
      ],
      "type": "VEC2"
    },
    {
      "bufferView": 0,
      "byteOffset": 3790728,
      "componentType": 5125,
      "count": 327174,
      "type": "SCALAR"
    },
    {
      "bufferView": 2,
      "byteOffset": 6291072,
      "componentType": 5126,
      "count": 65534,
      "max": [
        99.01168823242188,
        124.23548126220703,
        9.313751220703125
      ],
      "min": [
        7.5614190101623535,
        -91.6327133178711,
        -5.83373498916626
      ],
      "type": "VEC3"
    },
    {
      "bufferView": 2,
      "byteOffset": 7077480,
      "componentType": 5126,
      "count": 65534,
      "max": [
        0.9999988079071045,
        0.9999792575836182,
        0.9991217851638794
      ],
      "min": [
        -0.9999564290046692,
        -0.9999622702598572,
        -1.0
      ],
      "type": "VEC3"
    },
    {
      "bufferView": 1,
      "byteOffset": 2097024,
      "componentType": 5126,
      "count": 65534,
      "max": [
        0.9995681643486023,
        0.9997857213020325
      ],
      "min": [
        0.0001323656615568325,
        0.0039090346544981
      ],
      "type": "VEC2"
    },
    {
      "bufferView": 0,
      "byteOffset": 5099424,
      "componentType": 5125,
      "count": 304353,
      "type": "SCALAR"
    },
    {
      "bufferView": 2,
      "byteOffset": 7863888,
      "componentType": 5126,
      "count": 65532,
      "max": [
        130.17556762695313,
        -1.156123161315918,
        7.423260688781738
      ],
      "min": [
        -0.8655297160148621,
        -103.61698150634766,
        -8.89539623260498
      ],
      "type": "VEC3"
    },
    {
      "bufferView": 2,
      "byteOffset": 8650272,
      "componentType": 5126,
      "count": 65532,
      "max": [
        0.9999990463256836,
        0.9999957084655762,
        0.9998632073402405
      ],
      "min": [
        -0.9999764561653137,
        -0.9999974966049194,
        -0.9999998807907104
      ],
      "type": "VEC3"
    },
    {
      "bufferView": 1,
      "byteOffset": 2621296,
      "componentType": 5126,
      "count": 65532,
      "max": [
        0.9995810985565186,
        0.9997992515563965
      ],
      "min": [
        0.00013356722774915397,
        0.013730095699429512
      ],
      "type": "VEC2"
    },
    {
      "bufferView": 0,
      "byteOffset": 6316836,
      "componentType": 5125,
      "count": 218211,
      "type": "SCALAR"
    },
    {
      "bufferView": 2,
      "byteOffset": 9436656,
      "componentType": 5126,
      "count": 65532,
      "max": [
        130.13583374023438,
        0.9526408314704895,
        7.912778377532959
      ],
      "min": [
        -95.41621398925781,
        -126.16703033447266,
        1.3876376152038574
      ],
      "type": "VEC3"
    },
    {
      "bufferView": 2,
      "byteOffset": 10223040,
      "componentType": 5126,
      "count": 65532,
      "max": [
        0.9997524619102478,
        0.9993003606796265,
        0.9999776482582092
      ],
      "min": [
        -0.9998838305473328,
        -0.9998325109481812,
        -1.0
      ],
      "type": "VEC3"
    },
    {
      "bufferView": 1,
      "byteOffset": 3145552,
      "componentType": 5126,
      "count": 65532,
      "max": [
        0.9995602369308472,
        0.9997678995132446
      ],
      "min": [
        0.00016518229676876217,
        0.00390625
      ],
      "type": "VEC2"
    },
    {
      "bufferView": 0,
      "byteOffset": 7189680,
      "componentType": 5125,
      "count": 265011,
      "type": "SCALAR"
    },
    {
      "bufferView": 2,
      "byteOffset": 11009424,
      "componentType": 5126,
      "count": 65532,
      "max": [
        110.27045440673828,
        61.467533111572266,
        8.763294219970703
      ],
      "min": [
        -122.01497650146484,
        -116.0016098022461,
        1.313810110092163
      ],
      "type": "VEC3"
    },
    {
      "bufferView": 2,
      "byteOffset": 11795808,
      "componentType": 5126,
      "count": 65532,
      "max": [
        0.9997551441192627,
        0.99912029504776,
        0.9999781847000122
      ],
      "min": [
        -0.9999331831932068,
        -0.9986993074417114,
        -1.0
      ],
      "type": "VEC3"
    },
    {
      "bufferView": 1,
      "byteOffset": 3669808,
      "componentType": 5126,
      "count": 65532,
      "max": [
        0.9992629289627075,
        0.9997632503509521
      ],
      "min": [
        0.0023097374942153692,
        0.024045810103416443
      ],
      "type": "VEC2"
    },
    {
      "bufferView": 0,
      "byteOffset": 8249724,
      "componentType": 5125,
      "count": 290922,
      "type": "SCALAR"
    },
    {
      "bufferView": 2,
      "byteOffset": 12582192,
      "componentType": 5126,
      "count": 65532,
      "max": [
        108.78557586669922,
        126.8327407836914,
        9.320724487304688
      ],
      "min": [
        -118.87657165527344,
        -0.9161331653594971,
        2.8089547157287598
      ],
      "type": "VEC3"
    },
    {
      "bufferView": 2,
      "byteOffset": 13368576,
      "componentType": 5126,
      "count": 65532,
      "max": [
        0.9999665021896362,
        0.9998886585235596,
        0.9999158978462219
      ],
      "min": [
        -0.9999774098396301,
        -0.9999944567680359,
        -0.9999998807907104
      ],
      "type": "VEC3"
    },
    {
      "bufferView": 1,
      "byteOffset": 4194064,
      "componentType": 5126,
      "count": 65532,
      "max": [
        0.9995593428611755,
        0.9997725486755371
      ],
      "min": [
        0.003345015225932002,
        0.00390625
      ],
      "type": "VEC2"
    },
    {
      "bufferView": 0,
      "byteOffset": 9413412,
      "componentType": 5125,
      "count": 276381,
      "type": "SCALAR"
    },
    {
      "bufferView": 2,
      "byteOffset": 14154960,
      "componentType": 5126,
      "count": 65532,
      "max": [
        12.295289039611816,
        107.93009948730469,
        9.479902267456055
      ],
      "min": [
        -129.87445068359375,
        -6.652602195739746,
        -3.755610466003418
      ],
      "type": "VEC3"
    },
    {
      "bufferView": 2,
      "byteOffset": 14941344,
      "componentType": 5126,
      "count": 65532,
      "max": [
        0.999927818775177,
        0.9998676180839539,
        0.999980628490448
      ],
      "min": [
        -0.999767541885376,
        -0.9999626278877258,
        -1.0
      ],
      "type": "VEC3"
    },
    {
      "bufferView": 1,
      "byteOffset": 4718320,
      "componentType": 5126,
      "count": 65532,
      "max": [
        0.999579131603241,
        0.9997891187667847
      ],
      "min": [
        0.00013843645865563303,
        0.003906311001628637
      ],
      "type": "VEC2"
    },
    {
      "bufferView": 0,
      "byteOffset": 10518936,
      "componentType": 5125,
      "count": 270105,
      "type": "SCALAR"
    },
    {
      "bufferView": 2,
      "byteOffset": 15727728,
      "componentType": 5126,
      "count": 27504,
      "max": [
        6.23599100112915,
        105.25718688964844,
        9.261178016662598
      ],
      "min": [
        -50.25867462158203,
        -49.511775970458984,
        1.173974871635437
      ],
      "type": "VEC3"
    },
    {
      "bufferView": 2,
      "byteOffset": 16057776,
      "componentType": 5126,
      "count": 27504,
      "max": [
        0.9999718070030212,
        0.9998425841331482,
        0.9998845458030701
      ],
      "min": [
        -0.9999898076057434,
        -0.9999992251396179,
        -0.9999992251396179
      ],
      "type": "VEC3"
    },
    {
      "bufferView": 1,
      "byteOffset": 5242576,
      "componentType": 5126,
      "count": 27504,
      "max": [
        0.9992125630378723,
        0.9996894001960754
      ],
      "min": [
        0.00017580062558408827,
        0.0039513385854661465
      ],
      "type": "VEC2"
    },
    {
      "bufferView": 0,
      "byteOffset": 11599356,
      "componentType": 5125,
      "count": 98676,
      "type": "SCALAR"
    }
  ],
  "asset": {
    "extras": {
      "author": "Institutul Național al Patrimoniului (https://sketchfab.com/cimec)",
      "license": "CC-BY-4.0 (http://creativecommons.org/licenses/by/4.0/)",
      "source": "https://sketchfab.com/3d-models/castelul-martinuzzi-vintu-de-jos-romania-7b87b41e133e4fa9a301e04bfaa8c844",
      "title": "Castelul Martinuzzi, Vințu de Jos, Romania"
    },
    "generator": "Sketchfab-10.65.0",
    "version": "2.0"
  },
  "bufferViews": [
    {
      "buffer": 0,
      "byteLength": 11994060,
      "name": "floatBufferViews",
      "target": 34963
    },
    {
      "buffer": 0,
      "byteLength": 5462608,
      "byteOffset": 11994060,
      "byteStride": 8,
      "name": "floatBufferViews",
      "target": 34962
    },
    {
      "buffer": 0,
      "byteLength": 16387824,
      "byteOffset": 17456668,
      "byteStride": 12,
      "name": "floatBufferViews",
      "target": 34962
    }
  ],
  "buffers": [
    {
      "byteLength": 33844492,
      "uri": "scene.bin"
    }
  ],
  "extensionsRequired": [
    "KHR_materials_pbrSpecularGlossiness"
  ],
  "extensionsUsed": [
    "KHR_materials_pbrSpecularGlossiness"
  ],
  "images": [
    {
      "uri": "textures/material0_diffuse.jpeg"
    }
  ],
  "materials": [
    {
      "doubleSided": true,
      "extensions": {
        "KHR_materials_pbrSpecularGlossiness": {
          "diffuseFactor": [
            1.0,
            1.0,
            1.0,
            1.0
          ],
          "diffuseTexture": {
            "index": 0
          },
          "glossinessFactor": 0.042294850537622566,
          "specularFactor": [
            0.0,
            0.0,
            0.0
          ]
        }
      },
      "name": "material0"
    }
  ],
  "meshes": [
    {
      "name": "Model_material0_0",
      "primitives": [
        {
          "attributes": {
            "NORMAL": 1,
            "POSITION": 0,
            "TEXCOORD_0": 2
          },
          "indices": 3,
          "material": 0,
          "mode": 4
        }
      ]
    },
    {
      "name": "Model_material0_0",
      "primitives": [
        {
          "attributes": {
            "NORMAL": 5,
            "POSITION": 4,
            "TEXCOORD_0": 6
          },
          "indices": 7,
          "material": 0,
          "mode": 4
        }
      ]
    },
    {
      "name": "Model_material0_0",
      "primitives": [
        {
          "attributes": {
            "NORMAL": 9,
            "POSITION": 8,
            "TEXCOORD_0": 10
          },
          "indices": 11,
          "material": 0,
          "mode": 4
        }
      ]
    },
    {
      "name": "Model_material0_0",
      "primitives": [
        {
          "attributes": {
            "NORMAL": 13,
            "POSITION": 12,
            "TEXCOORD_0": 14
          },
          "indices": 15,
          "material": 0,
          "mode": 4
        }
      ]
    },
    {
      "name": "Model_material0_0",
      "primitives": [
        {
          "attributes": {
            "NORMAL": 17,
            "POSITION": 16,
            "TEXCOORD_0": 18
          },
          "indices": 19,
          "material": 0,
          "mode": 4
        }
      ]
    },
    {
      "name": "Model_material0_0",
      "primitives": [
        {
          "attributes": {
            "NORMAL": 21,
            "POSITION": 20,
            "TEXCOORD_0": 22
          },
          "indices": 23,
          "material": 0,
          "mode": 4
        }
      ]
    },
    {
      "name": "Model_material0_0",
      "primitives": [
        {
          "attributes": {
            "NORMAL": 25,
            "POSITION": 24,
            "TEXCOORD_0": 26
          },
          "indices": 27,
          "material": 0,
          "mode": 4
        }
      ]
    },
    {
      "name": "Model_material0_0",
      "primitives": [
        {
          "attributes": {
            "NORMAL": 29,
            "POSITION": 28,
            "TEXCOORD_0": 30
          },
          "indices": 31,
          "material": 0,
          "mode": 4
        }
      ]
    },
    {
      "name": "Model_material0_0",
      "primitives": [
        {
          "attributes": {
            "NORMAL": 33,
            "POSITION": 32,
            "TEXCOORD_0": 34
          },
          "indices": 35,
          "material": 0,
          "mode": 4
        }
      ]
    },
    {
      "name": "Model_material0_0",
      "primitives": [
        {
          "attributes": {
            "NORMAL": 37,
            "POSITION": 36,
            "TEXCOORD_0": 38
          },
          "indices": 39,
          "material": 0,
          "mode": 4
        }
      ]
    },
    {
      "name": "Model_material0_0",
      "primitives": [
        {
          "attributes": {
            "NORMAL": 41,
            "POSITION": 40,
            "TEXCOORD_0": 42
          },
          "indices": 43,
          "material": 0,
          "mode": 4
        }
      ]
    }
  ],
  "nodes": [
    {
      "children": [
        1
      ],
      "matrix": [
        0.37465226650238037,
        0.0,
        0.0,
        0.0,
        0.0,
        8.318951449978859e-17,
        -0.37465226650238037,
        0.0,
        0.0,
        0.37465226650238037,
        8.318951449978859e-17,
        0.0,
        0.0,
        0.0,
        0.0,
        1.0
      ],
      "name": "Sketchfab_model"
    },
    {
      "children": [
        2
      ],
      "matrix": [
        1.0,
        0.0,
        0.0,
        0.0,
        0.0,
        -1.0,
        0.0,
        0.0,
        0.0,
        0.0,
        -1.0,
        0.0,
        0.0,
        0.0,
        0.0,
        1.0
      ],
      "name": "model.fbx"
    },
    {
      "children": [
        3
      ],
      "name": "RootNode"
    },
    {
      "children": [
        4,
        5,
        6,
        7,
        8,
        9,
        10,
        11,
        12,
        13,
        14
      ],
      "name": "Model"
    },
    {
      "mesh": 0,
      "name": "Model_material0_0"
    },
    {
      "mesh": 1,
      "name": "Model_material0_0"
    },
    {
      "mesh": 2,
      "name": "Model_material0_0"
    },
    {
      "mesh": 3,
      "name": "Model_material0_0"
    },
    {
      "mesh": 4,
      "name": "Model_material0_0"
    },
    {
      "mesh": 5,
      "name": "Model_material0_0"
    },
    {
      "mesh": 6,
      "name": "Model_material0_0"
    },
    {
      "mesh": 7,
      "name": "Model_material0_0"
    },
    {
      "mesh": 8,
      "name": "Model_material0_0"
    },
    {
      "mesh": 9,
      "name": "Model_material0_0"
    },
    {
      "mesh": 10,
      "name": "Model_material0_0"
    }
  ],
  "samplers": [
    {
      "magFilter": 9729,
      "minFilter": 9987,
      "wrapS": 10497,
      "wrapT": 10497
    }
  ],
  "scene": 0,
  "scenes": [
    {
      "name": "Sketchfab_Scene",
      "nodes": [
        0
      ]
    }
  ],
  "textures": [
    {
      "sampler": 0,
      "source": 0
    }
  ]
}
